HIERARCHY
ROOT Hips
{
  OFFSET 0.0000 0.0000 0.0000
  CHANNELS 6 Xposition Yposition Zposition Zrotation Xrotation Yrotation
  JOINT LeftHip
  {
    OFFSET 5.5000 -0.0000 0.0000
    CHANNELS 3 Zrotation Xrotation Yrotation
    JOINT LeftKnee
    {
      OFFSET 0.0000 -17.5000 0.0000
      CHANNELS 3 Zrotation Xrotation Yrotation
      JOINT LeftAnkle
      {
        OFFSET 0.0000 -17.0000 0.0000
        CHANNELS 3 Zrotation Xrotation Yrotation
        End Site
        {
            OFFSET -0.0000 -4.7000 -2.0000
        }
      }
    }
  }
  JOINT RightHip
  {
    OFFSET -5.5000 -0.0000 0.0000
    CHANNELS 3 Zrotation Xrotation Yrotation
    JOINT RightKnee
    {
      OFFSET 0.0000 -17.5000 0.0000
      CHANNELS 3 Zrotation Xrotation Yrotation
      JOINT RightAnkle
      {
        OFFSET -0.0000 -17.0000 -0.0000
        CHANNELS 3 Zrotation Xrotation Yrotation
        End Site
        {
            OFFSET 0.0000 -4.7000 -2.0000
        }
      }
    }
  }
  JOINT Chest
  {
    OFFSET 0.0000 3.0000 -1.0000
    CHANNELS 3 Zrotation Xrotation Yrotation
    JOINT LeftCollar
    {
      OFFSET -0.0000 18.0000 1.0000
      CHANNELS 3 Zrotation Xrotation Yrotation
      JOINT LeftShoulder
      {
        OFFSET 6.5000 0.0000 0.0000
        CHANNELS 3 Zrotation Xrotation Yrotation
        JOINT LeftElbow
        {
          OFFSET 0.0000 -11.0000 0.0000
          CHANNELS 3 Zrotation Xrotation Yrotation
          JOINT LeftWrist
          {
            OFFSET 0.0000 -10.5000 0.0000
            CHANNELS 3 Zrotation Xrotation Yrotation
            End Site
            {
                OFFSET 0.0000 -6.0000 0.0000
            }
          }
        }
      }
    }
    JOINT RightCollar
    {
      OFFSET -0.0000 18.0000 1.0000
      CHANNELS 3 Zrotation Xrotation Yrotation
      JOINT RightShoulder
      {
        OFFSET -6.5000 0.0000 0.0000
        CHANNELS 3 Zrotation Xrotation Yrotation
        JOINT RightElbow
        {
          OFFSET -0.0000 -11.0000 -0.0000
          CHANNELS 3 Zrotation Xrotation Yrotation
          JOINT RightWrist
          {
            OFFSET 0.0000 -10.5000 0.0000
            CHANNELS 3 Zrotation Xrotation Yrotation
            End Site
            {
                OFFSET 0.0000 -6.0000 0.0000
            }
          }
        }
      }
    }
    JOINT Neck
    {
      OFFSET -0.0000 18.0000 1.0000
      CHANNELS 3 Zrotation Xrotation Yrotation
      JOINT Head
      {
        OFFSET 0.0000 3.0000 0.0000
        CHANNELS 3 Zrotation Xrotation Yrotation
        End Site
        {
            OFFSET 0.0000 7.0000 0.0000
        }
      }
    }
  }
}
MOTION
Frames:	11
Frame Time:	0.033333
2.6722 39.1983 -0.3022 -4.90 6.15 -83.58 0.99 -6.84 1.95 -0.00 33.41 -0.29 0.09 -19.15 -10.26 1.07 -4.92 -7.32 -0.00 30.99 -1.93 16.72 1.99 16.28 2.11 6.15 -3.91 0.00 0.00 0.00 14.11 -14.12 4.47 0.00 -13.24 2.48 -16.01 -7.51 -3.22 0.00 0.00 0.00 -11.55 -5.07 -30.36 -0.00 -16.42 3.03 12.30 -14.28 4.61 0.00 0.00 0.00 13.93 -25.05 -19.83 
2.9692 39.1838 0.1908 -4.89 6.09 -83.63 -0.06 -7.72 1.76 -0.00 34.36 -0.42 1.15 -19.23 -9.43 0.03 -5.95 -7.20 -0.00 32.26 -2.01 16.73 1.01 16.91 1.77 5.68 -3.43 0.00 0.00 0.00 14.84 -13.37 4.35 -0.00 -14.50 1.19 -15.38 -5.81 -0.29 0.00 0.00 0.00 -10.84 -4.70 -27.55 0.00 -17.44 3.52 11.75 -12.04 2.49 0.00 0.00 0.00 15.19 -23.25 -18.25 
3.0686 39.0373 0.5965 -5.22 6.05 -83.71 -1.01 -8.82 1.26 0.00 37.14 -0.70 2.14 -20.57 -8.07 -1.03 -7.51 -7.34 -0.00 35.20 -2.43 16.88 -0.49 18.18 1.58 4.81 -3.12 0.00 0.00 0.00 15.63 -12.94 3.74 -0.00 -15.87 0.31 -14.93 -3.34 2.86 0.00 0.00 0.00 -10.10 -4.35 -25.49 0.00 -18.53 3.50 11.55 -9.23 1.91 0.00 0.00 0.00 16.30 -21.00 -17.47 
2.9575 38.7291 0.6384 -5.67 5.95 -83.83 -1.39 -9.40 0.68 0.00 39.77 -0.75 2.37 -22.14 -7.11 -1.69 -8.94 -7.66 0.00 38.07 -2.90 16.70 -1.81 19.33 1.50 4.12 -2.90 0.00 0.00 0.00 16.02 -12.16 3.11 -0.00 -17.02 0.26 -14.46 -1.51 5.06 0.00 0.00 0.00 -9.73 -3.44 -23.91 -0.00 -19.13 3.29 11.99 -7.44 1.96 0.00 0.00 0.00 17.05 -18.21 -17.43 
2.9326 38.4832 0.6251 -6.03 5.81 -83.98 -1.64 -9.02 0.27 -0.00 39.89 -0.59 2.30 -22.26 -6.68 -2.13 -9.89 -7.92 0.00 38.82 -3.12 16.32 -1.56 19.72 1.42 3.91 -2.75 0.00 0.00 0.00 15.82 -11.27 2.56 -0.00 -17.87 0.82 -13.55 -0.56 6.38 0.00 0.00 0.00 -9.77 -2.36 -22.85 -0.00 -18.98 2.92 13.17 -6.71 2.50 0.00 0.00 0.00 17.21 -15.94 -18.10 
2.8336 38.4818 0.6081 -6.19 5.69 -84.14 -1.79 -8.41 0.09 -0.00 39.37 -0.30 2.14 -22.19 -6.66 -2.24 -10.64 -7.96 -0.00 39.17 -2.94 15.77 -1.38 19.52 1.34 4.15 -2.68 0.00 0.00 0.00 15.25 -10.64 2.26 0.00 -18.46 1.64 -12.34 -0.15 7.03 0.00 0.00 0.00 -10.03 -1.47 -22.32 -0.00 -18.39 2.36 14.79 -6.42 3.53 0.00 0.00 0.00 16.93 -14.83 -19.02 
2.7765 38.5271 0.5696 -6.06 5.59 -84.25 -1.76 -7.93 0.27 -0.00 38.33 0.13 1.85 -21.77 -7.29 -1.98 -10.52 -7.63 -0.00 38.95 -2.32 15.14 -2.02 18.77 1.21 4.83 -2.55 0.00 0.00 0.00 14.46 -10.53 2.32 0.00 -19.07 2.41 -10.98 0.07 7.11 0.00 0.00 0.00 -10.56 -0.78 -22.08 0.00 -17.55 1.76 16.62 -6.51 4.58 0.00 0.00 0.00 16.12 -15.23 -19.61 
2.8380 38.6376 0.4094 -5.72 5.50 -84.29 -1.44 -7.44 0.67 -0.00 36.34 0.56 1.32 -20.61 -8.37 -1.50 -10.04 -7.07 -0.00 37.29 -1.51 14.31 -2.02 17.45 1.00 5.56 -2.35 0.00 0.00 0.00 13.66 -11.38 2.42 0.00 -19.92 2.63 -9.53 0.97 7.44 0.00 0.00 0.00 -11.31 -0.87 -22.19 0.00 -17.16 1.12 18.33 -5.53 5.43 0.00 0.00 0.00 15.03 -17.46 -19.68 
3.0083 38.8616 0.0379 -5.27 5.44 -84.23 -0.71 -7.07 1.16 0.00 33.86 0.95 0.46 -18.95 -9.77 -0.56 -9.70 -6.33 0.00 34.90 -0.59 13.85 -1.07 15.13 0.72 6.25 -2.03 0.00 0.00 0.00 13.19 -12.28 2.29 0.00 -20.57 2.21 -8.40 1.31 8.28 0.00 0.00 0.00 -11.86 -1.07 -22.20 0.00 -16.93 0.67 19.58 -4.76 5.72 0.00 0.00 0.00 14.40 -19.74 -19.42 
3.1643 39.1388 -0.2801 -4.84 5.39 -84.05 -0.06 -6.80 1.72 0.00 31.72 1.34 -0.25 -17.47 -11.24 0.33 -9.43 -5.30 0.00 32.81 0.36 13.64 -0.37 12.53 0.53 6.70 -1.58 0.00 0.00 0.00 13.32 -13.07 2.08 -0.00 -21.17 1.58 -8.08 1.60 9.44 0.00 0.00 0.00 -11.87 -1.38 -21.89 0.00 -17.06 0.39 19.84 -4.07 5.42 0.00 0.00 0.00 14.74 -21.11 -19.13 
3.5219 39.3385 -0.1262 -4.67 5.34 -83.83 -0.43 -7.43 1.68 -0.00 31.39 0.85 0.26 -16.68 -10.78 0.26 -10.02 -4.27 0.00 32.51 0.87 14.25 -0.07 10.80 0.43 6.53 -0.99 0.00 0.00 0.00 13.62 -14.07 2.27 -0.00 -21.87 1.24 -8.38 3.06 9.97 0.00 0.00 0.00 -11.77 -2.18 -21.11 -0.00 -17.64 0.32 19.23 -2.37 4.22 0.00 0.00 0.00 15.68 -22.02 -18.22 
